<?xml version="1.0" standalone="no"?>
<!DOCTYPE svg PUBLIC "-//W3C//DTD SVG 20010904//EN"
 "http://www.w3.org/TR/2001/REC-SVG-20010904/DTD/svg10.dtd">
<svg version="1.0" xmlns="http://www.w3.org/2000/svg"
 width="512.000000pt" height="512.000000pt" viewBox="0 0 512.000000 512.000000"
 preserveAspectRatio="xMidYMid meet">
<metadata>
Created by potrace 1.11, written by Peter Selinger 2001-2013
</metadata>
<g transform="translate(0.000000,512.000000) scale(0.100000,-0.100000)"
fill="#000000" stroke="none">
<path d="M63 5040 c-61 -37 -63 -47 -63 -380 l0 -300 2105 0 2105 0 0 295 c0
329 -3 349 -62 385 -33 20 -45 20 -2043 20 -1976 0 -2011 0 -2042 -20z m498
-190 c33 -24 69 -95 69 -136 -1 -41 -33 -107 -65 -132 -131 -103 -315 13 -274
173 30 116 170 165 270 95z m3312 -24 c79 -53 75 -177 -6 -226 -31 -19 -57
-20 -875 -20 -930 0 -882 -3 -922 63 -41 67 -15 157 54 188 39 18 80 19 881
16 806 -2 841 -3 868 -21z"/>
<path d="M861 3768 c-5 -13 -73 -167 -151 -343 -78 -176 -144 -328 -147 -337
-5 -16 2 -18 59 -18 l65 0 36 80 36 80 179 0 179 0 34 -80 34 -80 67 0 c66 0
67 0 58 23 -6 12 -77 173 -158 357 l-148 335 -67 3 c-62 3 -68 1 -76 -20z
m141 -279 c32 -73 57 -134 54 -136 -2 -2 -57 -2 -123 -1 l-120 3 60 137 c33
76 63 136 65 133 3 -3 32 -64 64 -136z"/>
<path d="M1418 3784 c-5 -4 -8 -166 -8 -361 l0 -353 65 0 65 0 0 104 0 104
123 5 c152 6 202 22 256 83 48 54 67 139 51 222 -17 93 -50 135 -135 174 -45
20 -70 23 -230 26 -99 2 -183 1 -187 -4z m372 -134 c59 -30 76 -100 44 -180
-24 -59 -57 -73 -186 -78 l-108 -5 0 148 0 148 106 -7 c74 -5 118 -13 144 -26z"/>
<path d="M2120 3430 l0 -360 60 0 60 0 0 360 0 360 -60 0 -60 0 0 -360z"/>
<path d="M3372 3108 c-5 -18 -22 -86 -38 -152 -23 -94 -33 -120 -49 -126 -11
-4 -58 -20 -105 -35 -47 -15 -127 -49 -179 -76 -52 -27 -99 -49 -105 -49 -6 1
-69 36 -141 80 l-130 79 -139 -138 -139 -139 83 -137 83 -137 -22 -37 c-50
-82 -110 -227 -132 -314 -6 -26 -16 -50 -22 -54 -5 -3 -76 -22 -156 -42 l-146
-36 0 -195 0 -195 155 -40 155 -40 16 -60 c23 -87 75 -211 115 -279 41 -70 45
-53 -55 -220 l-73 -119 139 -138 138 -138 130 79 c72 44 135 79 141 80 6 0 53
-22 105 -49 52 -27 132 -61 179 -76 47 -15 95 -31 106 -35 18 -7 27 -32 54
-142 17 -73 34 -141 37 -151 4 -16 20 -17 201 -15 l196 3 37 148 c20 82 39
150 40 152 2 1 37 13 78 25 85 25 211 79 279 119 l47 27 136 -82 136 -82 139
139 138 138 -82 134 -81 135 59 118 c33 66 70 157 84 204 l23 85 157 40 156
40 0 196 0 195 -142 33 c-79 18 -149 37 -157 41 -8 4 -25 45 -38 91 -13 46
-50 137 -82 202 l-60 119 80 130 c43 72 79 133 79 137 0 3 -61 67 -136 142
l-136 136 -131 -80 c-73 -44 -137 -80 -142 -80 -6 0 -28 11 -50 25 -59 37
-197 96 -278 118 -38 11 -72 22 -74 24 -3 3 -22 71 -42 153 l-37 148 -197 3
-196 2 -9 -32z m398 -548 c369 -75 660 -351 756 -715 23 -86 27 -120 27 -245
0 -124 -4 -159 -26 -244 -146 -550 -708 -860 -1252 -689 -368 116 -640 455
-672 838 -26 303 70 574 278 783 235 237 565 338 889 272z"/>
<path d="M3443 2146 c-135 -33 -274 -136 -346 -257 -55 -94 -78 -177 -79 -285
-1 -160 51 -286 166 -399 124 -123 247 -170 421 -163 79 4 115 11 170 33 168
67 282 189 341 365 27 81 26 233 -3 325 -88 280 -387 449 -670 381z"/>
</g>
</svg>
